<?xml version="1.0" encoding="UTF-8"?>
<svg width="30px" height="6px" viewBox="0 0 30 6" version="1.1" xmlns="http://www.w3.org/2000/svg" xmlns:xlink="http://www.w3.org/1999/xlink">
    <!-- Generator: sketchtool 56.3 (101010) - https://sketch.com -->
    <title>2B019464-E50A-4B5C-82CE-3AA88508DA0D</title>
    <desc>Created with sketchtool.</desc>
    <g id="ASSETS" stroke="none" stroke-width="1" fill="none" fill-rule="evenodd">
        <g id="Icons-and-Symbols" transform="translate(-466.000000, -192.000000)" fill="#262E47" fill-rule="nonzero">
            <path d="M478.84375,192.84375 C479.406253,192.281247 480.124996,192 481,192 C481.875004,192 482.593747,192.281247 483.15625,192.84375 C483.718753,193.406253 484,194.124996 484,195 C484,195.875004 483.718753,196.593747 483.15625,197.15625 C482.593747,197.718753 481.875004,198 481,198 C480.124996,198 479.406253,197.718753 478.84375,197.15625 C478.281247,196.593747 478,195.875004 478,195 C478,194.124996 478.281247,193.406253 478.84375,192.84375 Z M466.84375,192.84375 C467.406253,192.281247 468.124996,192 469,192 C469.875004,192 470.593747,192.281247 471.15625,192.84375 C471.718753,193.406253 472,194.124996 472,195 C472,195.875004 471.718753,196.593747 471.15625,197.15625 C470.593747,197.718753 469.875004,198 469,198 C468.124996,198 467.406253,197.718753 466.84375,197.15625 C466.281247,196.593747 466,195.875004 466,195 C466,194.124996 466.281247,193.406253 466.84375,192.84375 Z M490.84375,192.84375 C491.406253,192.281247 492.124996,192 493,192 C493.875004,192 494.593747,192.281247 495.15625,192.84375 C495.718753,193.406253 496,194.124996 496,195 C496,195.875004 495.718753,196.593747 495.15625,197.15625 C494.593747,197.718753 493.875004,198 493,198 C492.124996,198 491.406253,197.718753 490.84375,197.15625 C490.281247,196.593747 490,195.875004 490,195 C490,194.124996 490.281247,193.406253 490.84375,192.84375 Z" id="ellipsis"></path>
        </g>
    </g>
</svg>