<?xml version="1.0" encoding="UTF-8"?>
<svg width="11px" height="7px" viewBox="0 0 11 7" version="1.1" xmlns="http://www.w3.org/2000/svg" xmlns:xlink="http://www.w3.org/1999/xlink">
  <g id="ASSETS" stroke="none" stroke-width="1" fill="none" fill-rule="evenodd">
      <g id="Buttons&amp;-FORMS" transform="translate(-448.000000, -1100.000000)" fill="#262E47" fill-rule="nonzero">
          <g id="Form-number" transform="translate(372.000000, 1090.000000)">
              <g id="Group-14" transform="translate(10.000000, 9.000000)">
                  <path d="M66.0996094,2.26757812 C66.0332028,2.20117154 66,2.10156316 66,1.96875 C66,1.81380131 66.055338,1.68652394 66.1660156,1.58691406 C66.2766933,1.48730419 66.4095044,1.4375 66.5644531,1.4375 L76.0605469,1.4375 C76.2154956,1.4375 76.3483067,1.48730419 76.4589844,1.58691406 C76.569662,1.68652394 76.625,1.81380131 76.625,1.96875 C76.625,2.07942764 76.5917972,2.16796842 76.5253906,2.234375 L76.4589844,2.33398438 L71.9433594,7.51367188 C71.7441396,7.71289162 71.5338553,7.8125 71.3125,7.8125 C71.0911447,7.8125 70.8808604,7.71289162 70.6816406,7.51367188 L66.1660156,2.33398438 L66.0996094,2.26757812 Z" id="" transform="translate(71.312500, 4.625000) scale(1, -1) translate(-71.312500, -4.625000) "></path>
              </g>
          </g>
      </g>
  </g>
</svg>