<?xml version="1.0" encoding="UTF-8"?>
<svg width="30px" height="18px" viewBox="0 0 30 18" version="1.1" xmlns="http://www.w3.org/2000/svg" xmlns:xlink="http://www.w3.org/1999/xlink">
    <!-- Generator: sketchtool 56.3 (101010) - https://sketch.com -->
    <title>DCDBEFFE-7B42-435A-A83D-57542DB4D90E</title>
    <desc>Created with sketchtool.</desc>
    <g id="ASSETS" stroke="none" stroke-width="1" fill="none" fill-rule="evenodd">
        <g id="Icons-and-Symbols" transform="translate(-524.000000, -238.000000)" fill="#37A38D" fill-rule="nonzero">
            <path d="M524.28125,240.34375 C524.093749,240.156249 524,239.875002 524,239.5 C524,239.062498 524.156248,238.703126 524.46875,238.421875 C524.781252,238.140624 525.156248,238 525.59375,238 L552.40625,238 C552.843752,238 553.218748,238.140624 553.53125,238.421875 C553.843752,238.703126 554,239.062498 554,239.5 C554,239.812502 553.906251,240.062499 553.71875,240.25 L553.53125,240.53125 L540.78125,255.15625 C540.218747,255.718753 539.625003,256 539,256 C538.374997,256 537.781253,255.718753 537.21875,255.15625 L524.46875,240.53125 L524.28125,240.34375 Z" id="down-arrow"></path>
        </g>
    </g>
</svg>