<?xml version="1.0" encoding="UTF-8"?>
<svg width="29px" height="29px" viewBox="0 0 29 29" version="1.1" xmlns="http://www.w3.org/2000/svg" xmlns:xlink="http://www.w3.org/1999/xlink">
    <!-- Generator: sketchtool 56.3 (101010) - https://sketch.com -->
    <title>7FEBE38C-AE0E-41AB-8315-731847FABDC1</title>
    <desc>Created with sketchtool.</desc>
    <g id="ASSETS" stroke="none" stroke-width="1" fill="#262E47" fill-rule="evenodd">
        <g id="Icons-and-Symbols" transform="translate(-764.000000, -182.000000)" fill="#262E47">
            <path fill="#262E47" d="M785.145833,199.671875 L784.84375,200.200521 L793,208.432292 L790.432292,211 L782.276042,202.768229 L781.747396,203.145833 C779.733497,204.40452 777.644108,205.033854 775.479167,205.033854 C772.307276,205.033854 769.60114,203.901053 767.360677,201.635417 C765.120214,199.36978 764,196.651058 764,193.479167 C764,190.307276 765.120214,187.60114 767.360677,185.360677 C769.60114,183.120214 772.307276,182 775.479167,182 C778.651058,182 781.357194,183.120214 783.597656,185.360677 C785.838119,187.60114 786.958333,190.307276 786.958333,193.479167 C786.958333,195.694456 786.354173,197.758671 785.145833,199.671875 Z M781.898438,187.059896 C780.136276,185.297734 777.99654,184.416667 775.479167,184.416667 C772.961793,184.416667 770.822057,185.297734 769.059896,187.059896 C767.297734,188.822057 766.416667,190.961793 766.416667,193.479167 C766.416667,195.99654 767.297734,198.136276 769.059896,199.898438 C770.822057,201.660599 772.961793,202.541667 775.479167,202.541667 C777.99654,202.541667 780.136276,201.660599 781.898438,199.898438 C783.710947,198.085928 784.617188,195.946193 784.617188,193.479167 C784.617188,191.01214 783.710947,188.872405 781.898438,187.059896 Z" id=""></path>
        </g>
    </g>
</svg>