<?xml version="1.0" encoding="UTF-8"?>
<svg width="30px" height="30px" viewBox="0 0 30 30" version="1.1" xmlns="http://www.w3.org/2000/svg" xmlns:xlink="http://www.w3.org/1999/xlink">
    <!-- Generator: sketchtool 56.3 (101010) - https://sketch.com -->
    <title>CB1BB049-CBB8-4C3B-B71E-8E9A3981B357</title>
    <desc>Created with sketchtool.</desc>
    <g id="ASSETS" stroke="none" stroke-width="1" fill="none" fill-rule="evenodd">
        <g id="Icons-and-Symbols" transform="translate(-465.000000, -230.000000)" fill="#000000" fill-rule="nonzero">
            <path d="M491.361457,246.514423 L494.741131,248.966346 C495.028764,249.254809 495.076702,249.591344 494.884946,249.975962 L491.792904,255.096154 C491.601149,255.480771 491.31352,255.600962 490.930009,255.456731 L487.046979,253.942308 C485.848508,254.759619 484.985621,255.264422 484.458293,255.456731 L483.88303,259.423077 C483.787152,259.807694 483.523492,260 483.092042,260 L476.979866,260 C476.548416,260 476.284756,259.807694 476.188878,259.423077 L475.613615,255.456731 C474.894532,255.168268 474.031645,254.663465 473.024928,253.942308 L469.141899,255.456731 C468.758388,255.649039 468.470759,255.528848 468.279004,255.096154 L465.186962,249.975962 C464.947267,249.543267 464.995205,249.206732 465.330777,248.966346 L468.566635,246.514423 C468.566635,246.370192 468.554651,246.129809 468.530681,245.793269 C468.506712,245.456729 468.494727,245.192309 468.494727,245 C468.494727,244.807691 468.506712,244.543271 468.530681,244.206731 C468.554651,243.870191 468.566635,243.629808 468.566635,243.485577 L465.258869,241.033654 C464.971236,240.745191 464.923298,240.408656 465.115054,240.024038 L468.207096,234.903846 C468.398851,234.519229 468.68648,234.399038 469.069991,234.543269 L472.953021,236.057692 C474.151492,235.240381 475.014379,234.735578 475.541707,234.543269 L476.11697,230.576923 C476.212848,230.192306 476.476508,230 476.907958,230 L483.020134,230 C483.451584,230 483.715244,230.192306 483.811122,230.576923 L484.314477,234.543269 C485.03356,234.831732 485.896447,235.336535 486.903164,236.057692 L490.714285,234.543269 C491.097796,234.350961 491.409394,234.471152 491.649089,234.903846 L494.741131,240.024038 C494.980825,240.456733 494.932887,240.793268 494.597315,241.033654 L491.361457,243.485577 C491.361457,243.629808 491.373441,243.870191 491.397411,244.206731 C491.42138,244.543271 491.433365,244.807691 491.433365,245 C491.433365,245.721157 491.409396,246.22596 491.361457,246.514423 Z M476.11697,248.75 C477.171626,249.75962 478.441987,250.264423 479.928092,250.264423 C481.414197,250.264423 482.684558,249.75962 483.739214,248.75 C484.793869,247.74038 485.321189,246.490392 485.321189,245 C485.321189,243.509608 484.793869,242.25962 483.739214,241.25 C482.684558,240.24038 481.414197,239.735577 479.928092,239.735577 C478.441987,239.735577 477.18361,240.24038 476.152924,241.25 C475.122239,242.25962 474.606903,243.509608 474.606903,245 C474.606903,246.490392 475.110254,247.74038 476.11697,248.75 Z" id="settings"></path>
        </g>
    </g>
</svg>